<?xml version="1.0" encoding="UTF-8"?>
<svg width="21px" height="18px" viewBox="0 0 21 18" version="1.1" xmlns="http://www.w3.org/2000/svg" xmlns:xlink="http://www.w3.org/1999/xlink">
    <!-- Generator: Sketch 42 (36781) - http://www.bohemiancoding.com/sketch -->
    <title>Group</title>
    <desc>Created with Sketch.</desc>
    <defs></defs>
    <g id="2Gether" stroke="none" stroke-width="1" fill="none" fill-rule="evenodd">
        <g id="Open-Event---Price" transform="translate(-14.000000, -453.000000)">
            <g id="Group" transform="translate(14.000000, 453.000000)">
                <g id="Group-5" fill="#5E9BE9">
                    <path d="M5.64435616,1.68435616 C5.64435616,0.836136986 4.95690411,0.148684932 4.10868493,0.148684932 C3.2609589,0.148684932 2.57350685,0.836136986 2.57350685,1.68435616 C2.57350685,2.53208219 3.2609589,3.21953425 4.10868493,3.21953425 C4.95715068,3.21953425 5.64435616,2.53232877 5.64435616,1.68435616 L5.64435616,1.68435616 Z" id="Shape"></path>
                    <path d="M4.10868493,3.95432877 C1.95978082,3.95432877 0.217726027,5.69663014 0.217726027,7.84578082 L0.217726027,9.81271233 C0.217726027,10.1712329 0.50769863,10.4614521 0.865972603,10.4614521 C1.224,10.4614521 1.5139726,10.1712329 1.5139726,9.81271233 L1.5139726,7.84578082 C1.5139726,7.28309589 1.69693151,6.73619178 2.03547945,6.28619178 C2.07961644,6.22726027 2.14890411,6.19273973 2.22263014,6.19273973 C2.35232877,6.19273973 2.45712329,6.29753425 2.45712329,6.42723288 L2.45712329,17.3236438 C2.45712329,17.682411 2.74758904,17.9723836 3.10561644,17.9723836 C3.46364384,17.9723836 3.75410959,17.682411 3.75410959,17.3236438 L3.75410959,11.3525753 C3.75410959,11.1560548 3.91265753,10.9977534 4.10868493,10.9977534 C4.3049589,10.9977534 4.46350685,11.1563014 4.46350685,11.3525753 L4.46350685,17.3233973 C4.46350685,17.6821644 4.7539726,17.972137 5.112,17.972137 C5.4700274,17.972137 5.76049315,17.6821644 5.76049315,17.3233973 L5.76049315,6.4269863 C5.76049315,6.35326027 5.79526027,6.2839726 5.85419178,6.23983562 C5.95775342,6.16241096 6.10471233,6.18312329 6.18213699,6.28619178 C6.52068493,6.73619178 6.70364384,7.28309589 6.70364384,7.84578082 L6.70364384,9.81271233 C6.70364384,10.1712329 6.99361644,10.4614521 7.35164384,10.4614521 C7.70991781,10.4614521 7.99989041,10.1712329 7.99989041,9.81271233 L7.99989041,7.84578082 C8.00013699,5.69663014 6.25808219,3.95432877 4.10868493,3.95432877 Z" id="Shape"></path>
                </g>
                <g id="Group-6" transform="translate(10.000000, 0.000000)" fill="#967BDC">
                    <path d="M6.67972603,1.68435616 C6.67972603,0.836136986 5.99227397,0.148684932 5.14430137,0.148684932 C4.29657534,0.148684932 3.60912329,0.836136986 3.60912329,1.68435616 C3.60912329,2.53208219 4.29657534,3.21953425 5.14430137,3.21953425 C5.99227397,3.21953425 6.67972603,2.53232877 6.67972603,1.68435616 L6.67972603,1.68435616 Z" id="Shape"></path>
                    <path d="M5.14430137,12.3842466 L4.78947945,12.3842466 L4.78947945,17.3233973 C4.78947945,17.6821644 4.4990137,17.972137 4.1409863,17.972137 C3.7829589,17.972137 3.49249315,17.6821644 3.49249315,17.3233973 L3.49249315,12.3842466 L2.27391781,12.3842466 C2.18835616,12.3842466 2.10378082,12.3674795 2.02463014,12.3344384 C1.69372603,12.1963562 1.53764384,11.8168767 1.67572603,11.4862192 L3.85027397,6.27164384 C3.92153425,6.10052055 3.84065753,5.90375342 3.66953425,5.83224658 C3.51863014,5.76936986 3.34454795,5.82386301 3.25676712,5.96169863 C2.47216438,7.17361644 1.83673973,8.4760274 1.36528767,9.84057534 C1.24619178,10.178137 0.875589041,10.3549315 0.538027397,10.2360822 C0.200465753,10.1162466 0.0234246575,9.74638356 0.143013699,9.40832877 C0.577972603,8.17890411 1.13005479,6.99484932 1.79161644,5.87145205 C2.49115068,4.68394521 3.76619178,3.95482192 5.14454795,3.95482192 C6.52241096,3.95482192 7.79819178,4.68394521 8.49772603,5.87145205 C9.15928767,6.99484932 9.71136986,8.17890411 10.1460822,9.40832877 C10.2656712,9.74638356 10.0891233,10.1162466 9.75131507,10.2360822 C9.41350685,10.3549315 9.04315068,10.1783836 8.92380822,9.84057534 C8.45186301,8.4760274 7.81693151,7.17361644 7.03232877,5.96169863 C6.93271233,5.80512329 6.72509589,5.75926027 6.56852055,5.85887671 C6.43068493,5.94641096 6.37619178,6.12073973 6.43906849,6.27139726 L8.61361644,11.4859726 C8.64641096,11.5653699 8.66342466,11.6501918 8.66342466,11.7357534 C8.66342466,12.0937808 8.37320548,12.3842466 8.01542466,12.3842466 L6.79660274,12.3842466 L6.79660274,17.3233973 C6.79660274,17.6821644 6.50613699,17.972137 6.14810959,17.972137 C5.79008219,17.972137 5.49961644,17.6821644 5.49961644,17.3233973 L5.49961644,12.3842466 L5.14430137,12.3842466 Z" id="Shape"></path>
                </g>
            </g>
        </g>
    </g>
</svg>