<?xml version="1.0" encoding="UTF-8"?>
<svg width="8px" height="18px" viewBox="0 0 8 18" version="1.1" xmlns="http://www.w3.org/2000/svg" xmlns:xlink="http://www.w3.org/1999/xlink">
    <!-- Generator: Sketch 42 (36781) - http://www.bohemiancoding.com/sketch -->
    <title>Group Copy 2</title>
    <desc>Created with Sketch.</desc>
    <defs></defs>
    <g id="2Gether" stroke="none" stroke-width="1" fill="none" fill-rule="evenodd">
        <g id="Open-Event---Price" transform="translate(-14.000000, -589.000000)" fill="#5E9BE9">
            <g id="Group-Copy-2" transform="translate(14.000000, 589.000000)">
                <g id="Group-5">
                    <path d="M5.64435616,1.68435616 C5.64435616,0.836136986 4.95690411,0.148684932 4.10868493,0.148684932 C3.2609589,0.148684932 2.57350685,0.836136986 2.57350685,1.68435616 C2.57350685,2.53208219 3.2609589,3.21953425 4.10868493,3.21953425 C4.95715068,3.21953425 5.64435616,2.53232877 5.64435616,1.68435616 L5.64435616,1.68435616 Z" id="Shape"></path>
                    <path d="M4.10868493,3.95432877 C1.95978082,3.95432877 0.217726027,5.69663014 0.217726027,7.84578082 L0.217726027,9.81271233 C0.217726027,10.1712329 0.50769863,10.4614521 0.865972603,10.4614521 C1.224,10.4614521 1.5139726,10.1712329 1.5139726,9.81271233 L1.5139726,7.84578082 C1.5139726,7.28309589 1.69693151,6.73619178 2.03547945,6.28619178 C2.07961644,6.22726027 2.14890411,6.19273973 2.22263014,6.19273973 C2.35232877,6.19273973 2.45712329,6.29753425 2.45712329,6.42723288 L2.45712329,17.3236438 C2.45712329,17.682411 2.74758904,17.9723836 3.10561644,17.9723836 C3.46364384,17.9723836 3.75410959,17.682411 3.75410959,17.3236438 L3.75410959,11.3525753 C3.75410959,11.1560548 3.91265753,10.9977534 4.10868493,10.9977534 C4.3049589,10.9977534 4.46350685,11.1563014 4.46350685,11.3525753 L4.46350685,17.3233973 C4.46350685,17.6821644 4.7539726,17.972137 5.112,17.972137 C5.4700274,17.972137 5.76049315,17.6821644 5.76049315,17.3233973 L5.76049315,6.4269863 C5.76049315,6.35326027 5.79526027,6.2839726 5.85419178,6.23983562 C5.95775342,6.16241096 6.10471233,6.18312329 6.18213699,6.28619178 C6.52068493,6.73619178 6.70364384,7.28309589 6.70364384,7.84578082 L6.70364384,9.81271233 C6.70364384,10.1712329 6.99361644,10.4614521 7.35164384,10.4614521 C7.70991781,10.4614521 7.99989041,10.1712329 7.99989041,9.81271233 L7.99989041,7.84578082 C8.00013699,5.69663014 6.25808219,3.95432877 4.10868493,3.95432877 Z" id="Shape"></path>
                </g>
            </g>
        </g>
    </g>
</svg>