<?xml version="1.0" encoding="UTF-8"?>
<svg width="12px" height="12px" viewBox="0 0 12 12" version="1.1" xmlns="http://www.w3.org/2000/svg" xmlns:xlink="http://www.w3.org/1999/xlink">
    <!-- Generator: Sketch 43.1 (39012) - http://www.bohemiancoding.com/sketch -->
    <title>Group 4</title>
    <desc>Created with Sketch.</desc>
    <defs>
        <path d="M8.57632933,7.54716981 L8.03430532,7.54716981 L7.84219554,7.3619211 C8.51457976,6.57975986 8.9193825,5.56432247 8.9193825,4.45969125 C8.9193825,1.99656947 6.92281304,0 4.45969125,0 C1.99656947,0 0,1.99656947 0,4.45969125 C0,6.92281304 1.99656947,8.9193825 4.45969125,8.9193825 C5.56432247,8.9193825 6.57975986,8.51457976 7.3619211,7.84219554 L7.54716981,8.03430532 L7.54716981,8.57632933 L10.9777015,12 L12,10.9777015 L8.57632933,7.54716981 L8.57632933,7.54716981 Z M4.45969125,7.54716981 C2.75128645,7.54716981 1.37221269,6.16809605 1.37221269,4.45969125 C1.37221269,2.75128645 2.75128645,1.37221269 4.45969125,1.37221269 C6.16809605,1.37221269 7.54716981,2.75128645 7.54716981,4.45969125 C7.54716981,6.16809605 6.16809605,7.54716981 4.45969125,7.54716981 L4.45969125,7.54716981 Z" id="path-1"></path>
    </defs>
    <g id="2Gether" stroke="none" stroke-width="1" fill="none" fill-rule="evenodd">
        <g id="Search" transform="translate(-24.000000, -19.000000)">
            <g id="Group-4" transform="translate(24.000000, 19.000000)">
                <mask id="mask-2" fill="white">
                    <use xlink:href="#path-1"></use>
                </mask>
                <use id="Shape" fill="#4FBD98" xlink:href="#path-1"></use>
            </g>
        </g>
    </g>
</svg>