<?xml version="1.0" encoding="UTF-8"?>
<svg width="14px" height="14px" viewBox="0 0 14 14" version="1.1" xmlns="http://www.w3.org/2000/svg" xmlns:xlink="http://www.w3.org/1999/xlink">
    <!-- Generator: Sketch 41.2 (35397) - http://www.bohemiancoding.com/sketch -->
    <title>Shape</title>
    <desc>Created with Sketch.</desc>
    <defs>
        <path d="M9.625,8.5 L9.0325,8.5 L8.8225,8.2975 C9.5575,7.4425 10,6.3325 10,5.125 C10,2.4325 7.8175,0.25 5.125,0.25 C2.4325,0.25 0.25,2.4325 0.25,5.125 C0.25,7.8175 2.4325,10 5.125,10 C6.3325,10 7.4425,9.5575 8.2975,8.8225 L8.5,9.0325 L8.5,9.625 L12.25,13.3675 L13.3675,12.25 L9.625,8.5 L9.625,8.5 Z M5.125,8.5 C3.2575,8.5 1.75,6.9925 1.75,5.125 C1.75,3.2575 3.2575,1.75 5.125,1.75 C6.9925,1.75 8.5,3.2575 8.5,5.125 C8.5,6.9925 6.9925,8.5 5.125,8.5 L5.125,8.5 Z" id="path-1"></path>
    </defs>
    <g id="2Gether" stroke="none" stroke-width="1" fill="none" fill-rule="evenodd">
        <g id="Event" transform="translate(-288.000000, -17.000000)">
            <g id="Group" transform="translate(288.000000, 17.000000)">
                <g id="Group-2">
                    <g id="Icons/Action/Search">
                        <mask id="mask-2" fill="white">
                            <use xlink:href="#path-1"></use>
                        </mask>
                        <use id="Shape" fill="#FFFFFF" xlink:href="#path-1"></use>
                    </g>
                </g>
            </g>
        </g>
    </g>
</svg>